# xmcd
#
# Track frame offsets:
#	150
#	5352
#	15696
#	19453
#	26466
#	32321
#	37543
#	41571
#	48118
#	53960
#	59788
#	63324
#	67628
#	70838
#	76006
#	80068
#	86621
#	89480
#	94137
#	97979
#	100502
#	104363
#	106998
#	111449
#	129978
#	134694
#	142755
#	145875
#	149393
#	151758
#	153454
#	156433
#	167415
#	172780
#	175489
#	178647
#	191427
#	198974
#	203135
#	206836
#	219279
#	220591
#	222809
#	224566
#	228630
#	230366
#	231935
#	233298
#	234705
#	237227
#	240000
#	241364
#	244337
#	246699
#	248581
#	251153
#	252643
#	254503
#	256155
#
# Disc length: 3439 seconds
#
# Revision: 1
# Processed by: cddbd v1.5.1PL0 Copyright (c) Steve Scherf et al.
# Submitted via: CDex 1.50Beta5
#
DISCID=2c0d6d3b
DTITLE=会社で使う英会話 - 会社で使う英会話
DYEAR=2002
DGENRE=Books
TTITLE0=[7-1] 注文する
TTITLE1=Useful Expressions (注文内容を伝える, 注文を受ける, 追加注文する, 価格を尋ねる, 価格を伝える, 納期を尋ねる, 注文方法を確認する, 注文方法を案内する, 注文を変更 - 取り消す, その他)
TTITLE2=[7-2] 在庫を確認する
TTITLE3=Useful Expressions (在庫を確認してもらう, 在庫を確認する, 在庫がある旨を伝える, 在庫がない旨を伝える, 在庫がそろう時期を尋ねる - 伝える, その他)
TTITLE4=[8-1] 商品が破損していた場合
TTITLE5=Useful Expressions (破損のクレームを伝える, 破損商品への対応を要求する, 破損商品に対応する, 破損状態を尋ねる)
TTITLE6=[8-2] 欠品している場合
TTITLE7=Useful Expressions (注文数の違い、欠品を伝える, 欠品の配達を依頼する, 発送・配達状況を伝える, 欠品数を尋ねる, 配達日を尋ねる)
TTITLE8=[8-3] 商品が届かない場合
TTITLE9=Useful Expressions (商品が届いていないことを伝える, 注文品の配達状況を確認する, 注文の配達を催促する, 調査中であることを述べる, 注文品の現状を述べる, 迅速な対応を約束する)
TTITLE10=[8-4] 注文とは違う商品が届いた場合
TTITLE11=Useful Expressions (品違いであったことを伝える, 品違いに対応する, 返品方法を尋ねる, その他)
TTITLE12=[8-5] 商品が見本と違う場合
TTITLE13=Useful Expressions (品質についての問題を述べる, 品質についての問題に対応する, 要望を述べる, 要望に応える)
TTITLE14=[8-6] 請求金額が間違っている
TTITLE15=Useful Expressions (請求書 - 金額のクレーム, クレームの対処, クレームに対する謝罪, 間違った請求書に対して今後の要求)
TTITLE16=[8-7] 代金が未払いの場合
TTITLE17=Useful Expressions (未払いであることを述べる, 未払いについて対応する, 支払いを要求する, 未払いを謝罪する)
TTITLE18=[9-1] 伝言を残す - 承る
TTITLE19=[9-2] 折り返しかけなおしてもらう
TTITLE20=[9-3] 再度かけなおす
TTITLE21=[9-4] 保留にしてもらって待つ
TTITLE22=[9-5] 留守番電話にメッセージを残す
TTITLE23=Useful Expressions (相手を呼び出す, 相手の名前を尋ねる, 電話をつなぐ, 本人が電話に出る, 不在を伝える, 電話に出られないことを伝える, 電話をかけなおすことを伝える, 伝言を受ける, 伝言を
TTITLE24=[9-6] 道案内
TTITLE25=Useful Expressions (行き方を尋ねる, 確認する, 迷った旨を伝える, 行き方を伝える, その他)
TTITLE26=[10-1] 食事に誘う
TTITLE27=[10-2] 食事に誘う（代案を出す）
TTITLE28=[10-3] 食事中の会話
TTITLE29=[10-4] 勘定を支払う
TTITLE30=[10-5] エンターテイメントへの誘い
TTITLE31=Useful Expressions (食事に誘う, 誘いを受ける, 誘いを断る, 相手の好みを聞く, レストランで - 勧める, レストランで - 感想を聞く, 勘定を払う, お礼を言う, その他, 相手の興味を聞く)
TTITLE32=[11-1] ホテルの予約
TTITLE33=[11-2] ホテルのチェックイン
TTITLE34=[11-3] ホテルのチェックアウト
TTITLE35=Useful Expressions (ホテルの予約をする, ホテルの予約をキャンセル、変更する, 希望の部屋がとれないと伝えられる, チェックインが遅れることを伝える, ホテルの料金を尋ねる, ホテルのサービ
TTITLE36=[11-4] 航空チケットの予約
TTITLE37=[11-5] 航空チケットの再確認
TTITLE38=[11-6] 航空チケットの変更
TTITLE39=Useful Expressions (航空チケットの予約, チケットの購入について, 予約のリクエストをする, チケットの価格を確認する, チケットのタイプを尋ねる, チケットの変更、キャンセル, ストップオー
TTITLE40=[11-7] 一人で食事に出かける - 席に着く
TTITLE41=[11-7] 一人で食事に出かける - 注文する
TTITLE42=[11-7] 一人で食事に出かける - 勘定を払う
TTITLE43=Useful Expressions (レストランでオーダーする時, 食事中にお願いする, 食事が終わって, その他)
TTITLE44=[12-1] 時差ボケ
TTITLE45=[12-2] 日本での滞在場所
TTITLE46=[12-3] 日本での滞在期間
TTITLE47=[12-4] 日本についての感想
TTITLE48=[12-5] 新会社設立・異動
TTITLE49=[12-6] 景気
TTITLE50=[12-7] 大学時代
TTITLE51=[12-8] 英語学習
TTITLE52=[12-9] 交通事情
TTITLE53=[12-10] 家族
TTITLE54=[12-11] スポーツ
TTITLE55=[12-12] ダイエット
TTITLE56=[12-13] ベビーシャワー
TTITLE57=[12-14] ポットラックパーティー
TTITLE58=[12-15] 天候
EXTD=
EXTT0=
EXTT1=
EXTT2=
EXTT3=
EXTT4=
EXTT5=
EXTT6=
EXTT7=
EXTT8=
EXTT9=
EXTT10=
EXTT11=
EXTT12=
EXTT13=
EXTT14=
EXTT15=
EXTT16=
EXTT17=
EXTT18=
EXTT19=
EXTT20=
EXTT21=
EXTT22=
EXTT23=
EXTT24=
EXTT25=
EXTT26=
EXTT27=
EXTT28=
EXTT29=
EXTT30=
EXTT31=
EXTT32=
EXTT33=
EXTT34=
EXTT35=
EXTT36=
EXTT37=
EXTT38=
EXTT39=
EXTT40=
EXTT41=
EXTT42=
EXTT43=
EXTT44=
EXTT45=
EXTT46=
EXTT47=
EXTT48=
EXTT49=
EXTT50=
EXTT51=
EXTT52=
EXTT53=
EXTT54=
EXTT55=
EXTT56=
EXTT57=
EXTT58=
PLAYORDER=
